<svg width="24" height="24" viewBox="0 0 24 24" fill="none" xmlns="http://www.w3.org/2000/svg">
<path d="M3.75977 18.11V14.12C3.75977 12.38 5.16977 10.96 6.91977 10.96H17.0898C18.8298 10.96 20.2498 12.37 20.2498 14.12V18.11C20.2498 19.85 18.8398 21.27 17.0898 21.27H6.91977C5.16977 21.27 3.75977 19.86 3.75977 18.11Z" stroke="#EF4444" stroke-width="1.5" stroke-linecap="round" stroke-linejoin="round"/>
<path d="M6.84961 10.97V7.91999C6.84961 5.07999 9.1596 2.76999 11.9996 2.76999C14.8396 2.76999 17.1496 5.07999 17.1496 7.91999V10.97H6.84961Z" stroke="#EF4444" stroke-width="1.5" stroke-linecap="round" stroke-linejoin="round"/>
<path d="M12 18.18V15.6" stroke="#EF4444" stroke-width="1.5" stroke-linecap="round" stroke-linejoin="round"/>
<path d="M11.9997 16.12C12.5686 16.12 13.0297 15.6588 13.0297 15.09C13.0297 14.5211 12.5686 14.06 11.9997 14.06C11.4309 14.06 10.9697 14.5211 10.9697 15.09C10.9697 15.6588 11.4309 16.12 11.9997 16.12Z" fill="#EF4444" stroke="#EF4444" stroke-width="1.5" stroke-linecap="round" stroke-linejoin="round"/>
</svg>
